<?xml version="1.0" standalone="no"?>
<!DOCTYPE svg PUBLIC "-//W3C//DTD SVG 20010904//EN"
 "http://www.w3.org/TR/2001/REC-SVG-20010904/DTD/svg10.dtd">
<svg version="1.0" xmlns="http://www.w3.org/2000/svg"
 width="128.000000pt" height="128.000000pt" viewBox="0 0 128.000000 128.000000"
 preserveAspectRatio="xMidYMid meet">

<g transform="translate(0.000000,128.000000) scale(0.100000,-0.100000)"
fill="#000000" stroke="none">
<path d="M399 1047 c-124 -67 -231 -126 -237 -130 -16 -11 -17 -529 -1 -558 6
-12 106 -66 245 -134 129 -63 237 -115 240 -115 15 0 461 244 472 258 9 12 12
84 12 282 0 242 -2 268 -17 282 -24 21 -459 238 -475 237 -7 0 -115 -55 -239
-122z m431 -54 l170 -87 -54 -31 c-29 -16 -110 -59 -179 -95 l-126 -65 -177
88 c-118 59 -173 92 -167 98 19 19 328 179 345 179 10 0 94 -39 188 -87z m220
-206 c0 -49 -2 -54 -34 -71 -32 -17 -35 -17 -60 -1 -25 17 -27 16 -91 -19 -57
-32 -65 -41 -65 -66 0 -26 -7 -34 -52 -57 -29 -15 -56 -29 -60 -31 -5 -2 -8
20 -8 50 l0 53 183 97 c100 54 183 98 185 98 1 0 2 -24 2 -53z m-457 -137 c12
-8 17 -23 17 -60 0 -28 -2 -50 -5 -50 -3 0 -88 42 -190 92 l-185 93 0 52 0 53
173 -85 c94 -47 180 -90 190 -95z m455 -127 l-3 -118 -175 -93 c-96 -50 -178
-92 -182 -92 -4 0 -8 52 -8 115 l0 115 50 25 c27 14 53 25 57 25 5 1 10 -16
13 -37 6 -47 30 -53 92 -22 71 35 78 45 78 109 0 54 2 57 33 73 17 8 36 16 40
16 4 1 6 -52 5 -116z m-624 16 l186 -90 0 -115 c0 -70 -4 -114 -10 -114 -6 0
-91 41 -190 90 l-180 90 0 115 c0 63 2 115 4 115 2 0 88 -41 190 -91z m466 31
c0 -27 -4 -50 -10 -50 -11 0 -14 83 -3 93 12 12 13 8 13 -43z"/>
</g>
</svg>
